<svg id="contents" xmlns="http://www.w3.org/2000/svg" viewBox="0 0 280 112.93"><defs><style>.cls-1{fill:#ffc107}.cls-2{fill:#222}</style></defs><title>アートボード 1</title><path class="cls-1" d="M172.67 36.65L120.56 0l-76 43.38 35.5 64 49.45-13.79v19.35l16.53-23.96 11.45-3.19 15.18-49.14z"/><path class="cls-2" d="M91 91l-1.92-10.91L92.76 79c15.63-5.84 22.17-16.29 25.23-35.07l.52-2.92 10.93 2.13-.25 1.83c-1 6.82-3 16.89-8.34 25.49C110.59 87.08 92.6 91 91 91z"/><circle class="cls-2" cx="123.94" cy="42.24" r="5.57" transform="rotate(-30 123.94 42.25)"/><circle class="cls-2" cx="90.87" cy="85.37" r="5.57" transform="rotate(-30 90.866 85.367)"/><path class="cls-2" transform="rotate(-30 98.92 45.905)" d="M92.62 43.39h12.59v5.02H92.62z"/><circle class="cls-2" cx="97.66" cy="43.73" r="6.29" transform="rotate(-30 97.663 43.729)"/><circle class="cls-2" cx="100.17" cy="48.08" r="6.29" transform="rotate(-30 100.176 48.082)"/><path class="cls-2" transform="rotate(-85 78.218 53.755)" d="M74.31 48.86h7.81v9.8h-7.81z"/><circle class="cls-2" cx="73.34" cy="53.33" r="3.91" transform="rotate(-85 73.338 53.33)"/><circle class="cls-2" cx="83.1" cy="54.18" r="3.91" transform="rotate(-85 83.097 54.181)"/><path class="cls-2" transform="rotate(25 81.026 58.63)" d="M77.12 53.72h7.81v9.8h-7.81z"/><circle class="cls-2" cx="78.96" cy="63.06" r="3.91" transform="rotate(-65 78.96 63.058)"/><circle class="cls-2" cx="83.1" cy="54.18" r="3.91" transform="rotate(-65 83.1 54.187)"/><path class="cls-2" d="M267.65 24h-57.3v18.52H256l-15.45 24.55 15.82 9.43 21.89-34.83c4.41-7.01.28-17.67-10.61-17.67z"/><path class="cls-2" transform="rotate(-57.85 245.265 75.544)" d="M237.16 54.43h16.16v42.25h-16.16z"/><path class="cls-2" d="M58 2.6a12.71 12.71 0 1 0 12.68 12.71A12.71 12.71 0 0 0 58 2.6zm0 16.75a4 4 0 1 1 4-4 4 4 0 0 1-4 4zm0 32.5V35.6H18.56V19.34H0v46.43a27.79 27.79 0 0 0 27.21 27.85h.64A155.71 155.71 0 0 0 55.71 91c-.77-2.73-4.9-18.3-4.9-18.3-7.6 1.12-15.7 2.32-22.94 2.32a9.27 9.27 0 0 1-9.31-9.29V51.84zm82.9-27.9v18.57h39.48v27.89H140.9v18.54h39.46a18.56 18.56 0 0 0 18.57-18.56V42.53a18.7 18.7 0 0 0-18.6-18.57z"/></svg>